<svg id="Group_6676" data-name="Group 6676" xmlns="http://www.w3.org/2000/svg" width="139" height="40" viewBox="0 0 139 40">
  <rect id="Rectangle_3644" data-name="Rectangle 3644" width="139" height="40" rx="8"/>
  <g id="Group_6672" data-name="Group 6672" transform="translate(12.422 5.631)">
    <g id="Group_6671" data-name="Group 6671">
      <path id="Path_6971" data-name="Path 6971" d="M217.283,414.9a6.051,6.051,0,0,1,2.881-5.077,6.194,6.194,0,0,0-4.88-2.638c-2.053-.216-4.044,1.229-5.09,1.229-1.066,0-2.677-1.207-4.412-1.172a6.5,6.5,0,0,0-5.469,3.335c-2.365,4.094-.6,10.112,1.664,13.421,1.133,1.62,2.458,3.43,4.191,3.366,1.7-.07,2.329-1.082,4.376-1.082,2.029,0,2.623,1.082,4.391,1.041,1.82-.03,2.966-1.628,4.06-3.264a13.4,13.4,0,0,0,1.857-3.781A5.846,5.846,0,0,1,217.283,414.9Z" transform="translate(-199.19 -400.741)" fill="#fff"/>
      <path id="Path_6972" data-name="Path 6972" d="M221.762,400.344a5.956,5.956,0,0,0,1.362-4.268,6.061,6.061,0,0,0-3.922,2.029,5.67,5.67,0,0,0-1.4,4.11A5.014,5.014,0,0,0,221.762,400.344Z" transform="translate(-207.009 -396.076)" fill="#fff"/>
    </g>
  </g>
  <g id="Group_6673" data-name="Group 6673" transform="translate(43.334 17.928)">
    <path id="Path_6973" data-name="Path 6973" d="M264.28,431.549h-2.37l-1.3-4.08H256.1l-1.237,4.08h-2.307l4.471-13.889h2.761Zm-4.059-5.791-1.175-3.627q-.186-.556-.7-2.616H258.3q-.205.886-.659,2.616l-1.154,3.627Z" transform="translate(-252.555 -417.454)" fill="#fff"/>
    <path id="Path_6974" data-name="Path 6974" d="M285.642,429.083a5.693,5.693,0,0,1-1.38,4.038,4.037,4.037,0,0,1-3.07,1.319,3.068,3.068,0,0,1-2.844-1.422h-.042v5.276H276.08V427.5q0-1.607-.082-3.3h1.957l.124,1.587h.041a3.96,3.96,0,0,1,6.337-.393A5.529,5.529,0,0,1,285.642,429.083Zm-2.267.082a4.127,4.127,0,0,0-.659-2.411,2.279,2.279,0,0,0-1.937-.989,2.312,2.312,0,0,0-1.494.546,2.532,2.532,0,0,0-.876,1.433,2.91,2.91,0,0,0-.1.679v1.669a2.677,2.677,0,0,0,.67,1.845,2.224,2.224,0,0,0,1.741.752,2.278,2.278,0,0,0,1.957-.969A4.267,4.267,0,0,0,283.375,429.165Z" transform="translate(-262.418 -420.118)" fill="#fff"/>
    <path id="Path_6975" data-name="Path 6975" d="M305.527,429.083a5.688,5.688,0,0,1-1.382,4.038,4.034,4.034,0,0,1-3.069,1.319,3.067,3.067,0,0,1-2.843-1.422h-.041v5.276h-2.226V427.5q0-1.607-.082-3.3h1.957l.124,1.587h.041a3.961,3.961,0,0,1,6.337-.393A5.532,5.532,0,0,1,305.527,429.083Zm-2.267.082a4.123,4.123,0,0,0-.66-2.411,2.276,2.276,0,0,0-1.936-.989,2.314,2.314,0,0,0-1.494.546,2.534,2.534,0,0,0-.875,1.433,2.941,2.941,0,0,0-.1.679v1.669a2.684,2.684,0,0,0,.668,1.845,2.226,2.226,0,0,0,1.743.752,2.278,2.278,0,0,0,1.957-.969A4.271,4.271,0,0,0,303.261,429.165Z" transform="translate(-270.785 -420.118)" fill="#fff"/>
    <path id="Path_6976" data-name="Path 6976" d="M328.507,427.5a3.7,3.7,0,0,1-1.234,2.884,5.465,5.465,0,0,1-3.783,1.216,6.625,6.625,0,0,1-3.6-.865l.516-1.855a6.091,6.091,0,0,0,3.217.887,3.04,3.04,0,0,0,1.959-.568,1.853,1.853,0,0,0,.7-1.518,1.935,1.935,0,0,0-.577-1.424,5.382,5.382,0,0,0-1.916-1.074q-3.648-1.361-3.647-3.983a3.528,3.528,0,0,1,1.278-2.807,5.043,5.043,0,0,1,3.4-1.094,6.743,6.743,0,0,1,3.151.659l-.557,1.814a5.467,5.467,0,0,0-2.658-.639,2.688,2.688,0,0,0-1.833.578,1.648,1.648,0,0,0-.557,1.257,1.7,1.7,0,0,0,.638,1.36,7.213,7.213,0,0,0,2.02,1.072,6.856,6.856,0,0,1,2.638,1.689A3.543,3.543,0,0,1,328.507,427.5Z" transform="translate(-280.886 -417.304)" fill="#fff"/>
    <path id="Path_6977" data-name="Path 6977" d="M343.036,424.207h-2.453v4.863q0,1.854,1.3,1.855a4.021,4.021,0,0,0,.989-.1l.061,1.69a5.034,5.034,0,0,1-1.73.247,2.669,2.669,0,0,1-2.061-.8,3.947,3.947,0,0,1-.742-2.7v-5.048h-1.461v-1.669H338.4V420.7l2.185-.659v2.493h2.453Z" transform="translate(-288.058 -418.457)" fill="#fff"/>
    <path id="Path_6978" data-name="Path 6978" d="M359.446,429.123a5.5,5.5,0,0,1-1.319,3.792,4.711,4.711,0,0,1-3.67,1.525,4.476,4.476,0,0,1-3.512-1.463,5.328,5.328,0,0,1-1.309-3.689,5.439,5.439,0,0,1,1.349-3.812,4.671,4.671,0,0,1,3.637-1.484,4.573,4.573,0,0,1,3.545,1.464A5.276,5.276,0,0,1,359.446,429.123Zm-2.31.072a4.509,4.509,0,0,0-.6-2.377,2.2,2.2,0,0,0-2-1.2,2.23,2.23,0,0,0-2.041,1.2,4.592,4.592,0,0,0-.6,2.418,4.5,4.5,0,0,0,.6,2.376,2.274,2.274,0,0,0,4.018-.02A4.514,4.514,0,0,0,357.136,429.2Z" transform="translate(-293.401 -420.118)" fill="#fff"/>
    <path id="Path_6979" data-name="Path 6979" d="M375.163,426.155a3.875,3.875,0,0,0-.7-.061,2.1,2.1,0,0,0-1.814.887,3.331,3.331,0,0,0-.556,1.977v5.255h-2.224l.02-6.861q0-1.732-.084-3.153h1.939l.082,1.916h.061A3.421,3.421,0,0,1,373,424.529a2.693,2.693,0,0,1,1.608-.536,3.509,3.509,0,0,1,.557.041Z" transform="translate(-301.887 -420.118)" fill="#fff"/>
    <path id="Path_6980" data-name="Path 6980" d="M389.77,428.718a5.238,5.238,0,0,1-.082,1.009h-6.676a2.906,2.906,0,0,0,.969,2.267,3.3,3.3,0,0,0,2.183.7,7.4,7.4,0,0,0,2.7-.474l.348,1.545a8.357,8.357,0,0,1-3.357.619,4.859,4.859,0,0,1-3.659-1.371,5.061,5.061,0,0,1-1.329-3.678,5.737,5.737,0,0,1,1.237-3.771,4.263,4.263,0,0,1,3.5-1.606,3.73,3.73,0,0,1,3.278,1.606A5.413,5.413,0,0,1,389.77,428.718Zm-2.122-.577a3.032,3.032,0,0,0-.432-1.711,1.945,1.945,0,0,0-1.774-.927,2.112,2.112,0,0,0-1.771.907,3.317,3.317,0,0,0-.659,1.731Z" transform="translate(-306.542 -420.104)" fill="#fff"/>
  </g>
  <g id="Group_6675" data-name="Group 6675" transform="translate(44.654 5.985)">
    <g id="Group_6674" data-name="Group 6674" transform="translate(0)">
      <path id="Path_6981" data-name="Path 6981" d="M260.444,400.512a3.424,3.424,0,0,1-1.1,2.774,4.389,4.389,0,0,1-2.9.86,13.56,13.56,0,0,1-1.6-.081v-6.712a11.749,11.749,0,0,1,1.884-.142,4.062,4.062,0,0,1,2.7.78A3.149,3.149,0,0,1,260.444,400.512Zm-1.154.03a2.224,2.224,0,0,0-2.481-2.47,4.664,4.664,0,0,0-.88.071v5.1a5.9,5.9,0,0,0,.739.03,2.588,2.588,0,0,0,1.938-.7A2.793,2.793,0,0,0,259.29,400.542Z" transform="translate(-254.835 -396.907)" fill="#fff"/>
      <path id="Path_6982" data-name="Path 6982" d="M271.573,402.93a2.7,2.7,0,0,1-.648,1.863,2.312,2.312,0,0,1-1.8.75,2.2,2.2,0,0,1-1.726-.719,2.62,2.62,0,0,1-.642-1.812,2.674,2.674,0,0,1,.663-1.873,2.3,2.3,0,0,1,1.786-.729,2.251,2.251,0,0,1,1.742.718A2.6,2.6,0,0,1,271.573,402.93Zm-1.134.036a2.221,2.221,0,0,0-.294-1.168,1.08,1.08,0,0,0-.981-.589,1.1,1.1,0,0,0-1,.589,2.266,2.266,0,0,0-.293,1.188,2.229,2.229,0,0,0,.293,1.168,1.118,1.118,0,0,0,1.975-.01A2.214,2.214,0,0,0,270.439,402.966Z" transform="translate(-259.85 -398.253)" fill="#fff"/>
      <path id="Path_6983" data-name="Path 6983" d="M284.051,400.584l-1.539,4.92h-1l-.638-2.136a15.872,15.872,0,0,1-.4-1.589h-.02a11.529,11.529,0,0,1-.4,1.589l-.678,2.136h-1.013l-1.448-4.92h1.124l.557,2.338q.2.831.334,1.58h.019q.122-.617.405-1.569l.7-2.349h.891l.668,2.3q.243.84.394,1.62h.03a15.476,15.476,0,0,1,.335-1.62l.6-2.3Z" transform="translate(-264.129 -398.327)" fill="#fff"/>
      <path id="Path_6984" data-name="Path 6984" d="M295.885,405.431h-1.094v-2.818q0-1.3-.992-1.3a.986.986,0,0,0-.79.358,1.267,1.267,0,0,0-.3.843v2.918h-1.094v-3.513q0-.648-.04-1.408h.961l.051.769h.031a1.577,1.577,0,0,1,.566-.594,1.844,1.844,0,0,1,.992-.276,1.569,1.569,0,0,1,1.145.445,2.163,2.163,0,0,1,.567,1.63Z" transform="translate(-270.292 -398.253)" fill="#fff"/>
      <path id="Path_6985" data-name="Path 6985" d="M303.43,403.865h-1.092v-7.178h1.092Z" transform="translate(-274.822 -396.687)" fill="#fff"/>
      <path id="Path_6986" data-name="Path 6986" d="M311.84,402.93a2.7,2.7,0,0,1-.648,1.863,2.313,2.313,0,0,1-1.8.75,2.2,2.2,0,0,1-1.727-.719,2.62,2.62,0,0,1-.642-1.812,2.676,2.676,0,0,1,.663-1.873,2.3,2.3,0,0,1,1.786-.729,2.254,2.254,0,0,1,1.743.718A2.6,2.6,0,0,1,311.84,402.93Zm-1.135.036a2.221,2.221,0,0,0-.293-1.168,1.079,1.079,0,0,0-.981-.589,1.094,1.094,0,0,0-1,.589,2.261,2.261,0,0,0-.294,1.188,2.223,2.223,0,0,0,.294,1.168,1.1,1.1,0,0,0,.993.589,1.091,1.091,0,0,0,.98-.6A2.2,2.2,0,0,0,310.7,402.966Z" transform="translate(-276.792 -398.253)" fill="#fff"/>
      <path id="Path_6987" data-name="Path 6987" d="M321.545,405.431h-.982l-.082-.567h-.03a1.686,1.686,0,0,1-1.437.678,1.481,1.481,0,0,1-1.123-.446,1.394,1.394,0,0,1-.385-1,1.532,1.532,0,0,1,.754-1.377,3.929,3.929,0,0,1,2.122-.466v-.091q0-.971-1.021-.972a2.284,2.284,0,0,0-1.282.364l-.222-.718a3.149,3.149,0,0,1,1.688-.425q1.929,0,1.93,2.035v1.812A7.762,7.762,0,0,0,321.545,405.431Zm-1.135-1.691v-.759q-1.81-.03-1.81.992a.742.742,0,0,0,.21.578.765.765,0,0,0,.534.192,1.1,1.1,0,0,0,.668-.228.931.931,0,0,0,.379-.582A.889.889,0,0,0,320.409,403.74Z" transform="translate(-281.203 -398.253)" fill="#fff"/>
      <path id="Path_6988" data-name="Path 6988" d="M331.8,403.865h-.97l-.051-.79h-.031a1.635,1.635,0,0,1-1.58.9,1.85,1.85,0,0,1-1.478-.7,2.721,2.721,0,0,1-.587-1.812,2.846,2.846,0,0,1,.638-1.933,1.958,1.958,0,0,1,1.518-.689,1.475,1.475,0,0,1,1.386.668h.02v-2.824h1.095v5.852C331.759,403.018,331.771,403.46,331.8,403.865Zm-1.134-2.075v-.82a1.581,1.581,0,0,0-.03-.344,1.247,1.247,0,0,0-.4-.663,1.073,1.073,0,0,0-.732-.269,1.122,1.122,0,0,0-.962.487,2.081,2.081,0,0,0-.351,1.245,1.945,1.945,0,0,0,.337,1.185,1.125,1.125,0,0,0,.956.486,1.054,1.054,0,0,0,.864-.4A1.352,1.352,0,0,0,330.664,401.79Z" transform="translate(-285.24 -396.687)" fill="#fff"/>
      <path id="Path_6989" data-name="Path 6989" d="M347.858,402.93a2.7,2.7,0,0,1-.648,1.863,2.311,2.311,0,0,1-1.8.75,2.206,2.206,0,0,1-1.727-.719,2.62,2.62,0,0,1-.642-1.812,2.676,2.676,0,0,1,.662-1.873,2.3,2.3,0,0,1,1.788-.729,2.25,2.25,0,0,1,1.741.718A2.6,2.6,0,0,1,347.858,402.93Zm-1.134.036a2.227,2.227,0,0,0-.293-1.168,1.082,1.082,0,0,0-.983-.589,1.1,1.1,0,0,0-1,.589,2.261,2.261,0,0,0-.294,1.188,2.223,2.223,0,0,0,.294,1.168,1.118,1.118,0,0,0,1.975-.01A2.224,2.224,0,0,0,346.724,402.966Z" transform="translate(-291.946 -398.253)" fill="#fff"/>
      <path id="Path_6990" data-name="Path 6990" d="M358.379,405.431h-1.092v-2.818q0-1.3-.993-1.3a.983.983,0,0,0-.789.358,1.268,1.268,0,0,0-.3.843v2.918h-1.095v-3.513q0-.648-.038-1.408h.96l.051.769h.031a1.59,1.59,0,0,1,.567-.594,1.847,1.847,0,0,1,.993-.276,1.57,1.57,0,0,1,1.143.445,2.16,2.16,0,0,1,.567,1.63Z" transform="translate(-296.586 -398.253)" fill="#fff"/>
      <path id="Path_6991" data-name="Path 6991" d="M372.04,400.515h-1.2V402.9c0,.608.214.911.638.911a1.939,1.939,0,0,0,.487-.051l.028.83a2.464,2.464,0,0,1-.85.122,1.307,1.307,0,0,1-1.011-.394,1.927,1.927,0,0,1-.365-1.327v-2.48h-.72v-.82h.72v-.9l1.072-.324v1.225h1.2Z" transform="translate(-302.888 -397.437)" fill="#fff"/>
      <path id="Path_6992" data-name="Path 6992" d="M381.112,403.865h-1.095v-2.8q0-1.323-.991-1.322a1.044,1.044,0,0,0-1.044.767,1.374,1.374,0,0,0-.051.394v2.959h-1.092v-7.178h1.092v2.965h.02a1.654,1.654,0,0,1,1.478-.809,1.526,1.526,0,0,1,1.125.445,2.237,2.237,0,0,1,.557,1.65Z" transform="translate(-306.167 -396.687)" fill="#fff"/>
      <path id="Path_6993" data-name="Path 6993" d="M391.35,402.731a2.605,2.605,0,0,1-.041.5h-3.28a1.434,1.434,0,0,0,.475,1.113,1.629,1.629,0,0,0,1.075.345,3.638,3.638,0,0,0,1.327-.233l.171.759a4.113,4.113,0,0,1-1.651.3,2.382,2.382,0,0,1-1.8-.673,2.48,2.48,0,0,1-.653-1.807,2.82,2.82,0,0,1,.608-1.853,2.092,2.092,0,0,1,1.72-.79,1.83,1.83,0,0,1,1.609.79A2.646,2.646,0,0,1,391.35,402.731Zm-1.044-.284a1.47,1.47,0,0,0-.212-.84.955.955,0,0,0-.871-.456,1.038,1.038,0,0,0-.87.445,1.649,1.649,0,0,0-.324.85Z" transform="translate(-310.433 -398.246)" fill="#fff"/>
    </g>
  </g>
</svg>
