<svg id="Btn_Google_Play" data-name="Btn Google Play" xmlns="http://www.w3.org/2000/svg" xmlns:xlink="http://www.w3.org/1999/xlink" width="139" height="41" viewBox="0 0 139 41">
  <defs>
    <linearGradient id="linear-gradient" x1="0.915" y1="0.979" x2="-0.383" y2="0.309" gradientUnits="objectBoundingBox">
      <stop offset="0" stop-color="#00a0ff"/>
      <stop offset="0.007" stop-color="#00a1ff"/>
      <stop offset="0.26" stop-color="#00beff"/>
      <stop offset="0.512" stop-color="#00d2ff"/>
      <stop offset="0.76" stop-color="#00dfff"/>
      <stop offset="1" stop-color="#00e3ff"/>
    </linearGradient>
    <linearGradient id="linear-gradient-2" x1="1.076" y1="0.583" x2="-1.305" y2="0.583" gradientUnits="objectBoundingBox">
      <stop offset="0" stop-color="#ffe000"/>
      <stop offset="0.409" stop-color="#ffbd00"/>
      <stop offset="0.775" stop-color="orange"/>
      <stop offset="1" stop-color="#ff9c00"/>
    </linearGradient>
    <linearGradient id="linear-gradient-3" x1="0.862" y1="-0.123" x2="-0.501" y2="-1.893" gradientUnits="objectBoundingBox">
      <stop offset="0" stop-color="#ff3a44"/>
      <stop offset="1" stop-color="#c31162"/>
    </linearGradient>
    <linearGradient id="linear-gradient-4" x1="-0.188" y1="2.597" x2="0.421" y2="1.806" gradientUnits="objectBoundingBox">
      <stop offset="0" stop-color="#32a071"/>
      <stop offset="0.068" stop-color="#2da771"/>
      <stop offset="0.476" stop-color="#15cf74"/>
      <stop offset="0.801" stop-color="#06e775"/>
      <stop offset="1" stop-color="#00f076"/>
    </linearGradient>
  </defs>
  <rect id="Rectangle_3643" data-name="Rectangle 3643" width="139" height="41" rx="8"/>
  <g id="Group_6677" data-name="Group 6677" transform="translate(10.28 6.938)">
    <g id="Group_6667" data-name="Group 6667" transform="translate(32.348 0)">
      <path id="Path_6954" data-name="Path 6954" d="M188.735,222.553a2.792,2.792,0,0,1-.768,2.065,3,3,0,0,1-2.272.915,3.231,3.231,0,1,1,0-6.462,3.19,3.19,0,0,1,1.27.259,2.552,2.552,0,0,1,.968.691l-.544.544a2.09,2.09,0,0,0-1.694-.734,2.471,2.471,0,1,0,1.728,4.25,1.945,1.945,0,0,0,.518-1.253h-2.246v-.743h3A2.641,2.641,0,0,1,188.735,222.553Z" transform="translate(-182.481 -219.071)" fill="#fff" stroke="#fff" stroke-miterlimit="10" stroke-width="0.2"/>
      <path id="Path_6955" data-name="Path 6955" d="M206.26,220.209h-2.817v1.961h2.54v.743h-2.54v1.961h2.817v.76h-3.611v-6.185h3.611Z" transform="translate(-195.255 -219.31)" fill="#fff" stroke="#fff" stroke-miterlimit="10" stroke-width="0.2"/>
      <path id="Path_6956" data-name="Path 6956" d="M217.28,225.634h-.8v-5.425h-1.728v-.76h4.25v.76H217.28Z" transform="translate(-202.923 -219.31)" fill="#fff" stroke="#fff" stroke-miterlimit="10" stroke-width="0.2"/>
      <path id="Path_6957" data-name="Path 6957" d="M234.738,225.634v-6.185h.795v6.185Z" transform="translate(-215.579 -219.31)" fill="#fff" stroke="#fff" stroke-miterlimit="10" stroke-width="0.2"/>
      <path id="Path_6958" data-name="Path 6958" d="M242.162,225.634h-.8v-5.425H239.64v-.76h4.25v.76h-1.728Z" transform="translate(-218.683 -219.31)" fill="#fff" stroke="#fff" stroke-miterlimit="10" stroke-width="0.2"/>
      <path id="Path_6959" data-name="Path 6959" d="M263.769,224.6a3.211,3.211,0,0,1-4.535,0,3.341,3.341,0,0,1,0-4.586,3.2,3.2,0,0,1,4.531,0,3.332,3.332,0,0,1,0,4.582Zm-3.948-.518a2.378,2.378,0,0,0,3.36,0,2.636,2.636,0,0,0,0-3.551,2.378,2.378,0,0,0-3.36,0,2.639,2.639,0,0,0,0,3.551Z" transform="translate(-230.516 -219.071)" fill="#fff" stroke="#fff" stroke-miterlimit="10" stroke-width="0.2"/>
      <path id="Path_6960" data-name="Path 6960" d="M278.7,225.634v-6.185h.967l3.006,4.811h.034l-.034-1.192v-3.619h.8v6.185h-.829l-3.145-5.045h-.034l.034,1.192v3.853Z" transform="translate(-243.426 -219.31)" fill="#fff" stroke="#fff" stroke-miterlimit="10" stroke-width="0.2"/>
    </g>
    <path id="Path_6961" data-name="Path 6961" d="M209.538,252.548a4.384,4.384,0,1,0,4.4,4.384A4.322,4.322,0,0,0,209.538,252.548Zm0,7.042a2.664,2.664,0,1,1,2.474-2.657A2.536,2.536,0,0,1,209.538,259.589Zm-9.6-7.042a4.384,4.384,0,1,0,4.4,4.384A4.322,4.322,0,0,0,199.938,252.548Zm0,7.042a2.664,2.664,0,1,1,2.474-2.657A2.536,2.536,0,0,1,199.938,259.589Zm-11.421-5.7v1.86h4.451a3.884,3.884,0,0,1-1.013,2.342,4.556,4.556,0,0,1-3.438,1.362,4.95,4.95,0,0,1,0-9.9,4.744,4.744,0,0,1,3.355,1.329l1.312-1.312a6.488,6.488,0,0,0-4.667-1.877,6.81,6.81,0,1,0,0,13.618,6.226,6.226,0,0,0,4.75-1.91,6.147,6.147,0,0,0,1.611-4.351,6.042,6.042,0,0,0-.1-1.163Zm46.706,1.445a4.074,4.074,0,0,0-3.753-2.79,4.167,4.167,0,0,0-4.135,4.384,4.291,4.291,0,0,0,4.351,4.385,4.36,4.36,0,0,0,3.654-1.943l-1.494-1a2.5,2.5,0,0,1-2.159,1.212,2.23,2.23,0,0,1-2.126-1.329l5.863-2.425Zm-5.978,1.461a2.4,2.4,0,0,1,2.291-2.558,1.7,1.7,0,0,1,1.628.93Zm-4.767,4.252H226.4V248.163h-1.927Zm-3.155-7.523h-.066a3.039,3.039,0,0,0-2.309-.98,4.388,4.388,0,0,0,0,8.769,2.99,2.99,0,0,0,2.309-1h.066v.631c0,1.677-.9,2.574-2.342,2.574a2.426,2.426,0,0,1-2.209-1.561l-1.677.7a4.178,4.178,0,0,0,3.886,2.591c2.258,0,4.168-1.329,4.168-4.567v-7.872h-1.827Zm-2.209,6.062a2.667,2.667,0,0,1,0-5.314,2.678,2.678,0,0,1,0,5.314Zm25.133-11.426h-4.609v12.887h1.923v-4.883h2.686a4.008,4.008,0,1,0,0-8Zm.05,6.211h-2.735v-4.418H244.3a2.209,2.209,0,1,1,0,4.418Zm11.887-1.851a3.611,3.611,0,0,0-3.432,1.973l1.708.713a1.822,1.822,0,0,1,1.757-.945,1.852,1.852,0,0,1,2.023,1.658v.133a4.253,4.253,0,0,0-2.006-.5c-1.84,0-3.714,1.012-3.714,2.9a2.977,2.977,0,0,0,3.2,2.835,2.713,2.713,0,0,0,2.454-1.26h.066v.995H260.1v-4.94C260.1,253.8,258.39,252.524,256.185,252.524Zm-.232,7.063c-.63,0-1.509-.315-1.509-1.094,0-.995,1.094-1.376,2.039-1.376a3.427,3.427,0,0,1,1.757.431A2.331,2.331,0,0,1,255.953,259.587Zm10.909-6.781-2.205,5.587h-.066l-2.288-5.587H260.23l3.432,7.809-1.956,4.344h2.006L269,252.806Zm-17.326,8.245h1.923V248.163h-1.923Z" transform="translate(-149.58 -237.202)" fill="#fff"/>
    <g id="Group_6669" data-name="Group 6669" transform="translate(0 0.283)">
      <path id="Path_6962" data-name="Path 6962" d="M94.73,220.832a2.066,2.066,0,0,0-.477,1.448v22.8a2.064,2.064,0,0,0,.477,1.448l.076.074,12.771-12.771v-.3L94.806,220.757Z" transform="translate(-94.253 -220.422)" fill="url(#linear-gradient)"/>
      <path id="Path_6963" data-name="Path 6963" d="M134.853,252.8l-4.257-4.259v-.3l4.258-4.258.1.055,5.044,2.866c1.441.819,1.441,2.158,0,2.977l-5.044,2.866Z" transform="translate(-117.271 -235.129)" fill="url(#linear-gradient-2)"/>
      <path id="Path_6964" data-name="Path 6964" d="M112.756,260.357,108.4,256,95.554,268.85a1.677,1.677,0,0,0,2.142.063l15.059-8.557" transform="translate(-95.077 -242.746)" fill="url(#linear-gradient-3)"/>
      <path id="Path_6965" data-name="Path 6965" d="M112.756,228.746,97.7,220.19a1.677,1.677,0,0,0-2.142.063L108.4,233.1Z" transform="translate(-95.077 -219.843)" fill="url(#linear-gradient-4)"/>
      <g id="Group_6668" data-name="Group 6668" transform="translate(0 17.516)">
        <path id="Path_6966" data-name="Path 6966" d="M112.659,267.617l-14.963,8.5a1.717,1.717,0,0,1-2.065.011h0l-.077.077h0l.076.074h0a1.717,1.717,0,0,0,2.065-.011l15.059-8.557Z" transform="translate(-95.077 -267.617)" opacity="0.2" style="isolation: isolate"/>
        <path id="Path_6967" data-name="Path 6967" d="M94.73,288.133a2.066,2.066,0,0,1-.477-1.448v.15a2.067,2.067,0,0,0,.477,1.449l.077-.077Z" transform="translate(-94.253 -279.694)" opacity="0.12" style="isolation: isolate"/>
      </g>
      <path id="Path_6968" data-name="Path 6968" d="M147.349,257.341l-5.14,2.921.1.1,5.044-2.866a1.809,1.809,0,0,0,1.08-1.488h0A1.919,1.919,0,0,1,147.349,257.341Z" transform="translate(-124.627 -242.746)" opacity="0.12" style="isolation: isolate"/>
      <path id="Path_6969" data-name="Path 6969" d="M96.872,220.341l20.1,11.422a1.918,1.918,0,0,1,1.08,1.338h0a1.807,1.807,0,0,0-1.08-1.489l-20.1-11.422c-1.441-.819-2.619-.139-2.619,1.512v.15C94.253,220.2,95.431,219.522,96.872,220.341Z" transform="translate(-94.253 -219.843)" fill="#fff" opacity="0.25" style="isolation: isolate"/>
    </g>
  </g>
</svg>
